# xmcd
#
# Track frame offsets: 
#        150
#        36257
#        54197
#        82435
#        108777
#        131502
#        154507
#        183590
#        205500
#        259465
#        295810
#
# Disc length: 4176 seconds
#
# Revision: 3
# Processed by: cddbd v1.5.2PL0 Copyright (c) Steve Scherf et al.
# Submitted via: ExactAudioCopyFreeDBPlugin 1.0
#
DISCID=98104e0b
DTITLE=Big Al Carson and The Blues Masters - Live At The Funky Pirate
DYEAR=1995
DGENRE=Blues
TTITLE0=I'll Play The Blues For You
TTITLE1=Built For Comfort
TTITLE2=Back Door Man
TTITLE3=Born Under a Bad Sign
TTITLE4=Crossroads
TTITLE5=Pull Your Pants Up
TTITLE6=It Hurts Me Too
TTITLE7=Tangeray (Hand Granade Song)
TTITLE8=Mannish Boy - Hoochie Coochie Man
TTITLE9=Georgia
TTITLE10=Big Leg Woman
EXTD=YEAR: 1995 ID3G:   0
EXTT0=
EXTT1=
EXTT2=
EXTT3=
EXTT4=
EXTT5=
EXTT6=
EXTT7=
EXTT8=
EXTT9=
EXTT10=
PLAYORDER=
